<svg width="683" height="390" viewBox="0 0 683 390" fill="none" xmlns="http://www.w3.org/2000/svg">
<g clip-path="url(#clip0)">
<path d="M42.8346 251.99H4.1654C1.86852 251.99 0.029787 253.495 -0.0259323 255.445V283.763C-0.0259323 285.7 1.83138 287.279 4.1654 287.279H22.2618V294.089H11.4275C11.1812 294.089 10.945 294.187 10.7708 294.361C10.5967 294.535 10.4988 294.772 10.4988 295.018C10.4988 295.264 10.5967 295.5 10.7708 295.675C10.945 295.849 11.1812 295.947 11.4275 295.947H35.5725C35.8188 295.947 36.055 295.849 36.2292 295.675C36.4033 295.5 36.5012 295.264 36.5012 295.018C36.5012 294.772 36.4033 294.535 36.2292 294.361C36.055 294.187 35.8188 294.089 35.5725 294.089H24.1191V287.279H42.8346C45.1686 287.279 47.0259 285.7 47.0259 283.763V255.507C47.0259 253.569 45.1686 251.99 42.8346 251.99ZM45.1686 283.763C45.1686 284.66 44.0976 285.422 42.8346 285.422H4.1654C2.92719 285.422 1.83138 284.66 1.83138 283.763V255.47C1.83138 254.578 2.90243 253.848 4.1654 253.848H42.8346C44.0728 253.848 45.1686 254.609 45.1686 255.507V283.763Z" fill="#5F6C7B"/>
<path d="M26.7627 264.143C26.5447 264.035 26.2928 264.016 26.0612 264.091C25.8296 264.166 25.6369 264.33 25.5245 264.546L20.5221 274.278C20.4664 274.387 20.4327 274.505 20.4227 274.627C20.4128 274.748 20.4269 274.87 20.4643 274.987C20.5017 275.103 20.5616 275.21 20.6405 275.303C20.7195 275.396 20.816 275.473 20.9245 275.529C21.0331 275.584 21.1515 275.618 21.2731 275.628C21.3947 275.638 21.517 275.624 21.6332 275.586C21.7493 275.549 21.8569 275.489 21.9499 275.41C22.0429 275.331 22.1194 275.235 22.1751 275.126L27.1651 265.375C27.2718 265.158 27.2895 264.908 27.2143 264.677C27.1392 264.447 26.9771 264.256 26.7627 264.143Z" fill="#5F6C7B"/>
<path d="M32.6999 263.803C32.5238 263.639 32.291 263.549 32.0504 263.554C31.8098 263.558 31.5803 263.655 31.4101 263.826C31.24 263.996 31.1425 264.225 31.1383 264.466C31.134 264.706 31.2233 264.939 31.3874 265.115L36.0183 269.74L31.3874 274.365C31.2961 274.45 31.223 274.552 31.1722 274.666C31.1214 274.78 31.0941 274.903 31.0919 275.028C31.0897 275.152 31.1127 275.276 31.1594 275.392C31.2061 275.508 31.2756 275.613 31.3638 275.701C31.452 275.789 31.557 275.858 31.6727 275.905C31.7883 275.952 31.9121 275.975 32.0368 275.973C32.1615 275.97 32.2845 275.943 32.3984 275.892C32.5123 275.842 32.6149 275.768 32.6999 275.677L37.987 270.396C38.1609 270.222 38.2586 269.986 38.2586 269.74C38.2586 269.494 38.1609 269.258 37.987 269.084L32.6999 263.803Z" fill="#5F6C7B"/>
<path d="M16.3184 263.803C16.1443 263.629 15.9082 263.531 15.6622 263.531C15.4161 263.531 15.18 263.629 15.0059 263.803L9.71876 269.09C9.54486 269.264 9.44717 269.5 9.44717 269.746C9.44717 269.992 9.54486 270.228 9.71876 270.402L15.0059 275.69C15.1819 275.854 15.4148 275.943 15.6554 275.939C15.896 275.934 16.1255 275.837 16.2956 275.667C16.4658 275.497 16.5633 275.267 16.5675 275.027C16.5717 274.786 16.4824 274.553 16.3184 274.377L11.6875 269.752L16.3184 265.115C16.4923 264.941 16.59 264.705 16.59 264.459C16.59 264.213 16.4923 263.977 16.3184 263.803Z" fill="#5F6C7B"/>
</g>
<path d="M417.24 55.32C417.344 55.4921 417.482 55.6415 417.645 55.7592C417.809 55.8769 417.994 55.9605 418.19 56.0052C418.386 56.0498 418.59 56.0545 418.788 56.0189C418.986 55.9833 419.175 55.9083 419.343 55.7982C419.512 55.6881 419.656 55.5453 419.768 55.3781C419.881 55.211 419.958 55.023 419.996 54.8254C420.034 54.6277 420.032 54.4245 419.989 54.2277C419.947 54.0309 419.866 53.8447 419.75 53.68C417.758 50.6711 415.044 48.2089 411.857 46.518C408.669 44.8272 405.108 43.9615 401.5 44C401.102 44 400.721 44.158 400.439 44.4394C400.158 44.7207 400 45.1022 400 45.5C400 45.8978 400.158 46.2794 400.439 46.5607C400.721 46.842 401.102 47 401.5 47C404.61 46.962 407.679 47.7036 410.429 49.1569C413.178 50.6102 415.52 52.7291 417.24 55.32Z" fill="#EF4565"/>
<path d="M431 65.32C431 49.69 417.78 37 401.5 37C385.22 37 372 49.69 372 65.32C372.061 70.5938 373.59 75.7463 376.417 80.1993C379.243 84.6523 383.254 88.2296 388 90.53V103H385.5C385.102 103 384.721 103.158 384.439 103.439C384.158 103.721 384 104.102 384 104.5V118.5C384 118.898 384.158 119.279 384.439 119.561C384.721 119.842 385.102 120 385.5 120H389.56C390.11 125.87 395.48 130.5 402 130.5C408.52 130.5 413.89 125.87 414.44 120H418.5C418.898 120 419.279 119.842 419.561 119.561C419.842 119.279 420 118.898 420 118.5V104.5C420 104.102 419.842 103.721 419.561 103.439C419.279 103.158 418.898 103 418.5 103H415V90.53C419.746 88.2296 423.757 84.6523 426.583 80.1993C429.41 75.7463 430.939 70.5938 431 65.32ZM402 127.5C397.14 127.5 393.13 124.22 392.58 120H411.43C410.87 124.22 406.86 127.5 402 127.5ZM417 117H387V106H417V117ZM399.26 102.85L395.69 67.69C397.404 68.8388 399.421 69.4521 401.485 69.4521C403.549 69.4521 405.566 68.8388 407.28 67.69L403.57 102.84C403.567 102.893 403.567 102.947 403.57 103H399.26C399.263 102.95 399.263 102.9 399.26 102.85ZM406.57 103L410.85 62.51C410.95 62.013 411.001 61.5071 411 61C411.001 60.6157 410.854 60.2458 410.589 59.9667C410.325 59.6875 409.964 59.5205 409.58 59.5C409.194 59.4722 408.812 59.5969 408.516 59.8475C408.221 60.098 408.036 60.4543 408 60.84L407.88 62C407.3 64.52 404.66 66.42 401.5 66.42C398.34 66.42 395.67 64.54 395.11 62L395 60.85C394.98 60.4522 394.803 60.0785 394.508 59.8113C394.212 59.5441 393.823 59.4051 393.425 59.425C393.027 59.4449 392.654 59.622 392.386 59.9174C392.119 60.2127 391.98 60.6022 392 61C392 61.4867 392.047 61.9723 392.14 62.45L396.26 103H391V89.58C391.001 89.2912 390.918 89.0082 390.762 88.7652C390.606 88.5222 390.383 88.3294 390.12 88.21C385.674 86.2403 381.887 83.0369 379.207 78.9797C376.527 74.9226 375.067 70.1819 375 65.32C375 51.35 386.88 40 401.5 40C416.12 40 428 51.35 428 65.32C427.935 70.1836 426.476 74.9264 423.796 78.9855C421.115 83.0446 417.327 86.2496 412.88 88.22C412.619 88.3387 412.397 88.5299 412.241 88.771C412.085 89.0121 412.001 89.2929 412 89.58V103H406.57Z" fill="#EF4565"/>
<path d="M581.5 284H574V252.5C574 252.102 573.842 251.721 573.561 251.439C573.279 251.158 572.898 251 572.5 251H561V236.5C561 236.102 560.842 235.721 560.561 235.439C560.279 235.158 559.898 235 559.5 235H528.5C528.102 235 527.721 235.158 527.439 235.439C527.158 235.721 527 236.102 527 236.5V251H515.5C515.102 251 514.721 251.158 514.439 251.439C514.158 251.721 514 252.102 514 252.5V284H506.5C506.102 284 505.721 284.158 505.439 284.439C505.158 284.721 505 285.102 505 285.5V304.5C505 304.898 505.158 305.279 505.439 305.561C505.721 305.842 506.102 306 506.5 306H525.5C525.898 306 526.279 305.842 526.561 305.561C526.842 305.279 527 304.898 527 304.5V285.5C527 285.102 526.842 284.721 526.561 284.439C526.279 284.158 525.898 284 525.5 284H517V254H527V267.5C527 267.898 527.158 268.279 527.439 268.561C527.721 268.842 528.102 269 528.5 269H543V284H534.5C534.102 284 533.721 284.158 533.439 284.439C533.158 284.721 533 285.102 533 285.5V304.5C533 304.898 533.158 305.279 533.439 305.561C533.721 305.842 534.102 306 534.5 306H553.5C553.898 306 554.279 305.842 554.561 305.561C554.842 305.279 555 304.898 555 304.5V285.5C555 285.102 554.842 284.721 554.561 284.439C554.279 284.158 553.898 284 553.5 284H546V269H559.5C559.898 269 560.279 268.842 560.561 268.561C560.842 268.279 561 267.898 561 267.5V254H571V284H562.5C562.102 284 561.721 284.158 561.439 284.439C561.158 284.721 561 285.102 561 285.5V304.5C561 304.898 561.158 305.279 561.439 305.561C561.721 305.842 562.102 306 562.5 306H581.5C581.898 306 582.279 305.842 582.561 305.561C582.842 305.279 583 304.898 583 304.5V285.5C583 285.102 582.842 284.721 582.561 284.439C582.279 284.158 581.898 284 581.5 284ZM524 303H508V287H524V303ZM552 303H536V287H552V303ZM558 266H530V238H558V266ZM580 303H564V287H580V303Z" fill="#3DA9FC"/>
<path d="M346.5 193C341.061 193 335.744 194.613 331.222 197.635C326.699 200.656 323.175 204.951 321.093 209.976C319.012 215.001 318.467 220.531 319.528 225.865C320.59 231.199 323.209 236.099 327.055 239.945C330.901 243.791 335.801 246.411 341.135 247.472C346.47 248.533 351.999 247.988 357.024 245.907C362.049 243.825 366.344 240.301 369.365 235.778C372.387 231.256 374 225.939 374 220.5C373.992 213.209 371.092 206.219 365.937 201.063C360.781 195.908 353.791 193.008 346.5 193ZM346.5 245C341.654 245 336.918 243.563 332.889 240.871C328.86 238.179 325.719 234.353 323.865 229.876C322.011 225.399 321.525 220.473 322.471 215.72C323.416 210.968 325.75 206.602 329.176 203.176C332.602 199.749 336.968 197.416 341.72 196.471C346.473 195.525 351.399 196.011 355.876 197.865C360.353 199.719 364.179 202.86 366.871 206.889C369.563 210.918 371 215.654 371 220.5C370.992 226.995 368.408 233.222 363.815 237.815C359.222 242.408 352.995 244.992 346.5 245Z" fill="#AFC9D8" fill-opacity="0.2"/>
<path d="M307.76 230.94C307.948 231.006 308.147 231.034 308.345 231.022C308.544 231.011 308.738 230.96 308.917 230.872C309.096 230.785 309.255 230.662 309.386 230.513C309.517 230.363 309.617 230.189 309.68 230C310.751 226.991 312.503 224.27 314.8 222.05C315.073 221.771 315.226 221.397 315.228 221.007C315.229 220.617 315.079 220.242 314.808 219.961C314.538 219.68 314.168 219.515 313.778 219.502C313.389 219.489 313.009 219.628 312.72 219.89C310.087 222.433 308.078 225.551 306.85 229C306.78 229.187 306.749 229.386 306.757 229.585C306.765 229.785 306.813 229.981 306.897 230.161C306.982 230.342 307.102 230.504 307.25 230.638C307.398 230.771 307.572 230.874 307.76 230.94Z" fill="#FF6666" fill-opacity="0.2"/>
<path d="M310.43 250.23C310.698 250.23 310.962 250.158 311.193 250.022C311.424 249.886 311.615 249.69 311.744 249.455C311.874 249.22 311.938 248.955 311.931 248.686C311.923 248.418 311.843 248.157 311.7 247.93C309.687 244.762 308.58 241.103 308.5 237.35C308.492 236.952 308.326 236.574 308.039 236.298C307.753 236.022 307.368 235.872 306.97 235.88C306.572 235.888 306.194 236.054 305.918 236.341C305.642 236.627 305.492 237.012 305.5 237.41C305.588 241.707 306.85 245.899 309.15 249.53C309.286 249.746 309.475 249.924 309.699 250.046C309.923 250.169 310.175 250.232 310.43 250.23Z" fill="#FF6666" fill-opacity="0.2"/>
<path d="M343.92 251.21C341.317 253.913 338.025 255.853 334.4 256.82C334.015 256.922 333.687 257.173 333.487 257.517C333.288 257.861 333.233 258.27 333.335 258.655C333.437 259.04 333.688 259.368 334.032 259.568C334.376 259.767 334.785 259.822 335.17 259.72C339.324 258.615 343.097 256.395 346.08 253.3C346.224 253.16 346.337 252.992 346.415 252.807C346.492 252.621 346.532 252.423 346.531 252.222C346.53 252.021 346.489 251.823 346.41 251.638C346.331 251.453 346.216 251.287 346.071 251.147C345.927 251.008 345.756 250.899 345.568 250.827C345.381 250.755 345.181 250.722 344.98 250.729C344.78 250.735 344.583 250.782 344.4 250.867C344.218 250.951 344.055 251.071 343.92 251.22V251.21Z" fill="#FF6666" fill-opacity="0.2"/>
<path d="M327 257.4C323.272 257.03 319.717 255.647 316.72 253.4C316.562 253.282 316.383 253.196 316.192 253.147C316.001 253.098 315.803 253.087 315.608 253.115C315.413 253.143 315.225 253.209 315.056 253.309C314.886 253.41 314.738 253.542 314.62 253.7C314.502 253.858 314.416 254.037 314.367 254.228C314.318 254.419 314.307 254.617 314.335 254.812C314.363 255.007 314.429 255.195 314.529 255.364C314.63 255.534 314.762 255.682 314.92 255.8C318.355 258.385 322.433 259.98 326.71 260.41H326.86C327.258 260.43 327.647 260.291 327.943 260.024C328.238 259.756 328.415 259.383 328.435 258.985C328.455 258.587 328.316 258.198 328.049 257.902C327.781 257.607 327.408 257.43 327.01 257.41L327 257.4Z" fill="#FF6666" fill-opacity="0.2"/>
<path d="M296.45 258.62C296.149 257.413 295.998 256.174 296 254.93C296.001 254.352 296.034 253.774 296.1 253.2C296.145 252.802 296.03 252.403 295.781 252.09C295.657 251.934 295.505 251.805 295.331 251.709C295.158 251.613 294.967 251.552 294.77 251.53C294.573 251.508 294.374 251.524 294.183 251.579C293.992 251.634 293.815 251.726 293.66 251.849C293.346 252.099 293.145 252.462 293.1 252.86C293.028 253.548 292.994 254.239 293 254.93C292.998 256.42 293.179 257.904 293.54 259.35C293.622 259.674 293.811 259.961 294.076 260.166C294.34 260.371 294.665 260.481 295 260.48C295.229 260.481 295.455 260.429 295.661 260.329C295.867 260.229 296.048 260.084 296.189 259.903C296.33 259.723 296.427 259.512 296.474 259.288C296.521 259.064 296.516 258.832 296.46 258.61L296.45 258.62Z" fill="#FF6666" fill-opacity="0.2"/>
<path d="M295.66 248.65C296.011 248.826 296.417 248.858 296.791 248.738C297.165 248.619 297.477 248.357 297.66 248.01C298.504 246.389 299.636 244.936 301 243.72C301.271 243.449 301.428 243.084 301.438 242.7C301.449 242.317 301.312 241.944 301.055 241.658C300.799 241.373 300.444 241.196 300.061 241.165C299.679 241.134 299.299 241.25 299 241.49C297.365 242.95 296.01 244.695 295 246.64C294.822 246.994 294.792 247.405 294.915 247.781C295.039 248.158 295.307 248.47 295.66 248.65Z" fill="#FF6666" fill-opacity="0.2"/>
<path d="M322.38 264.9C321.175 266.268 319.732 267.407 318.12 268.26C317.937 268.347 317.773 268.469 317.639 268.621C317.505 268.773 317.402 268.95 317.338 269.142C317.274 269.334 317.25 269.537 317.267 269.739C317.283 269.941 317.341 270.137 317.435 270.317C317.53 270.496 317.66 270.654 317.817 270.781C317.974 270.909 318.156 271.003 318.351 271.059C318.546 271.114 318.75 271.129 318.951 271.104C319.152 271.078 319.345 271.012 319.52 270.91C321.451 269.896 323.182 268.541 324.63 266.91C324.895 266.612 325.031 266.22 325.008 265.822C324.984 265.423 324.803 265.05 324.505 264.785C324.207 264.52 323.815 264.384 323.417 264.407C323.018 264.431 322.645 264.612 322.38 264.91V264.9Z" fill="#FF6666" fill-opacity="0.2"/>
<path d="M302.56 267.37C301.053 266.34 299.745 265.046 298.7 263.55C298.587 263.388 298.443 263.251 298.277 263.145C298.111 263.039 297.926 262.967 297.732 262.932C297.538 262.898 297.339 262.902 297.146 262.945C296.954 262.987 296.772 263.067 296.61 263.18C296.448 263.293 296.311 263.437 296.205 263.603C296.099 263.769 296.026 263.954 295.992 264.148C295.923 264.54 296.012 264.944 296.24 265.27C297.491 267.063 299.056 268.615 300.86 269.85C301.022 269.969 301.206 270.055 301.402 270.101C301.597 270.148 301.8 270.155 301.998 270.121C302.196 270.088 302.386 270.015 302.555 269.907C302.725 269.799 302.871 269.658 302.985 269.492C303.099 269.327 303.178 269.14 303.219 268.943C303.259 268.746 303.259 268.543 303.22 268.346C303.18 268.149 303.101 267.962 302.988 267.796C302.875 267.63 302.729 267.489 302.56 267.38V267.37Z" fill="#FF6666" fill-opacity="0.2"/>
<path d="M312.94 269.89C311.129 270.111 309.294 270.006 307.52 269.58C307.133 269.486 306.724 269.549 306.384 269.757C306.043 269.964 305.799 270.298 305.705 270.685C305.611 271.072 305.674 271.481 305.882 271.821C306.089 272.162 306.423 272.406 306.81 272.5C308.934 273.011 311.132 273.136 313.3 272.87C313.698 272.821 314.06 272.616 314.306 272.3C314.553 271.984 314.664 271.583 314.615 271.185C314.566 270.787 314.361 270.425 314.045 270.179C313.729 269.932 313.328 269.821 312.93 269.87L312.94 269.89Z" fill="#FF6666" fill-opacity="0.2"/>
<path d="M227.5 326V314C227.497 312.542 226.917 311.145 225.886 310.114C224.855 309.083 223.458 308.503 222 308.5H157C155.542 308.503 154.145 309.083 153.114 310.114C152.083 311.145 151.503 312.542 151.5 314V326C151.501 326.75 151.656 327.493 151.955 328.181C152.254 328.869 152.692 329.488 153.24 330C152.692 330.512 152.254 331.131 151.955 331.819C151.656 332.507 151.501 333.25 151.5 334V346C151.501 346.75 151.656 347.493 151.955 348.181C152.254 348.869 152.692 349.488 153.24 350C152.692 350.512 152.254 351.131 151.955 351.819C151.656 352.507 151.501 353.25 151.5 354V366C151.503 367.458 152.083 368.855 153.114 369.886C154.145 370.917 155.542 371.497 157 371.5H222C223.458 371.497 224.855 370.917 225.886 369.886C226.917 368.855 227.497 367.458 227.5 366V354C227.499 353.25 227.344 352.507 227.045 351.819C226.746 351.131 226.308 350.512 225.76 350C226.308 349.488 226.746 348.869 227.045 348.181C227.344 347.493 227.499 346.75 227.5 346V334C227.499 333.25 227.344 332.507 227.045 331.819C226.746 331.131 226.308 330.512 225.76 330C226.308 329.488 226.746 328.869 227.045 328.181C227.344 327.493 227.499 326.75 227.5 326ZM224.5 354V366C224.5 366.663 224.237 367.299 223.768 367.768C223.299 368.237 222.663 368.5 222 368.5H157C156.337 368.5 155.701 368.237 155.232 367.768C154.763 367.299 154.5 366.663 154.5 366V354C154.5 353.337 154.763 352.701 155.232 352.232C155.701 351.763 156.337 351.5 157 351.5H222C222.663 351.5 223.299 351.763 223.768 352.232C224.237 352.701 224.5 353.337 224.5 354ZM224.5 334V346C224.5 346.663 224.237 347.299 223.768 347.768C223.299 348.237 222.663 348.5 222 348.5H157C156.337 348.5 155.701 348.237 155.232 347.768C154.763 347.299 154.5 346.663 154.5 346V334C154.5 333.337 154.763 332.701 155.232 332.232C155.701 331.763 156.337 331.5 157 331.5H222C222.663 331.5 223.299 331.763 223.768 332.232C224.237 332.701 224.5 333.337 224.5 334ZM157 328.5C156.337 328.5 155.701 328.237 155.232 327.768C154.763 327.299 154.5 326.663 154.5 326V314C154.5 313.337 154.763 312.701 155.232 312.232C155.701 311.763 156.337 311.5 157 311.5H222C222.663 311.5 223.299 311.763 223.768 312.232C224.237 312.701 224.5 313.337 224.5 314V326C224.5 326.663 224.237 327.299 223.768 327.768C223.299 328.237 222.663 328.5 222 328.5H157Z" fill="black" fill-opacity="0.2"/>
<path d="M164 323C165.657 323 167 321.657 167 320C167 318.343 165.657 317 164 317C162.343 317 161 318.343 161 320C161 321.657 162.343 323 164 323Z" fill="black" fill-opacity="0.2"/>
<path d="M164 343C165.657 343 167 341.657 167 340C167 338.343 165.657 337 164 337C162.343 337 161 338.343 161 340C161 341.657 162.343 343 164 343Z" fill="black" fill-opacity="0.2"/>
<path d="M164 363C165.657 363 167 361.657 167 360C167 358.343 165.657 357 164 357C162.343 357 161 358.343 161 360C161 361.657 162.343 363 164 363Z" fill="black" fill-opacity="0.2"/>
<path d="M218 318.5H198C197.602 318.5 197.221 318.658 196.939 318.939C196.658 319.221 196.5 319.602 196.5 320C196.5 320.398 196.658 320.779 196.939 321.061C197.221 321.342 197.602 321.5 198 321.5H218C218.398 321.5 218.779 321.342 219.061 321.061C219.342 320.779 219.5 320.398 219.5 320C219.5 319.602 219.342 319.221 219.061 318.939C218.779 318.658 218.398 318.5 218 318.5Z" fill="black" fill-opacity="0.2"/>
<path d="M198 341.5H218C218.398 341.5 218.779 341.342 219.061 341.061C219.342 340.779 219.5 340.398 219.5 340C219.5 339.602 219.342 339.221 219.061 338.939C218.779 338.658 218.398 338.5 218 338.5H198C197.602 338.5 197.221 338.658 196.939 338.939C196.658 339.221 196.5 339.602 196.5 340C196.5 340.398 196.658 340.779 196.939 341.061C197.221 341.342 197.602 341.5 198 341.5Z" fill="black" fill-opacity="0.2"/>
<path d="M198 361.5H218C218.398 361.5 218.779 361.342 219.061 361.061C219.342 360.779 219.5 360.398 219.5 360C219.5 359.602 219.342 359.221 219.061 358.939C218.779 358.658 218.398 358.5 218 358.5H198C197.602 358.5 197.221 358.658 196.939 358.939C196.658 359.221 196.5 359.602 196.5 360C196.5 360.398 196.658 360.779 196.939 361.061C197.221 361.342 197.602 361.5 198 361.5Z" fill="black" fill-opacity="0.2"/>
<g filter="url(#filter0_dd)">
<rect x="624" width="100" height="100" rx="50" fill="#FF6666"/>
</g>
<rect x="189" y="102" width="20" height="20" rx="10" fill="#FF6666"/>
<rect x="213" y="72" width="30" height="30" rx="15" fill="white"/>
<rect x="599" y="181" width="20" height="20" rx="10" transform="rotate(-90 599 181)" fill="#FF6666" fill-opacity="0.2"/>
<rect x="569" y="157" width="30" height="30" rx="15" transform="rotate(-90 569 157)" fill="white" fill-opacity="0.2"/>
<defs>
<filter id="filter0_dd" x="620" y="0" width="108" height="108" filterUnits="userSpaceOnUse" color-interpolation-filters="sRGB">
<feFlood flood-opacity="0" result="BackgroundImageFix"/>
<feColorMatrix in="SourceAlpha" type="matrix" values="0 0 0 0 0 0 0 0 0 0 0 0 0 0 0 0 0 0 127 0"/>
<feOffset dy="4"/>
<feGaussianBlur stdDeviation="2"/>
<feColorMatrix type="matrix" values="0 0 0 0 0 0 0 0 0 0 0 0 0 0 0 0 0 0 0.25 0"/>
<feBlend mode="normal" in2="BackgroundImageFix" result="effect1_dropShadow"/>
<feColorMatrix in="SourceAlpha" type="matrix" values="0 0 0 0 0 0 0 0 0 0 0 0 0 0 0 0 0 0 127 0"/>
<feOffset dy="4"/>
<feGaussianBlur stdDeviation="2"/>
<feColorMatrix type="matrix" values="0 0 0 0 0 0 0 0 0 0 0 0 0 0 0 0 0 0 0.25 0"/>
<feBlend mode="normal" in2="effect1_dropShadow" result="effect2_dropShadow"/>
<feBlend mode="normal" in="SourceGraphic" in2="effect2_dropShadow" result="shape"/>
</filter>
<clipPath id="clip0">
<rect width="47" height="43.9207" fill="white" transform="translate(0 252)"/>
</clipPath>
</defs>
</svg>
