<svg width="11" height="12" viewBox="0 0 11 12" fill="none" xmlns="http://www.w3.org/2000/svg">
<path d="M5.39583 0.526917C2.41617 0.526917 0 2.94267 0 5.92274C0 8.30675 1.54606 10.3294 3.69 11.0428C3.95966 11.0928 4.05868 10.9258 4.05868 10.7832C4.05868 10.6546 4.05363 10.2295 4.05135 9.7787C2.55022 10.1051 2.23348 9.14204 2.23348 9.14204C1.98801 8.51837 1.63433 8.35249 1.63433 8.35249C1.14479 8.01761 1.67126 8.02453 1.67126 8.02453C2.21307 8.06255 2.49837 8.58054 2.49837 8.58054C2.97965 9.40543 3.76069 9.16696 4.06859 9.02907C4.11703 8.68037 4.25685 8.44228 4.41118 8.30755C3.21268 8.17114 1.95281 7.70845 1.95281 5.64094C1.95281 5.05183 2.16358 4.57047 2.50874 4.19259C2.45272 4.05669 2.26804 3.50792 2.56102 2.76465C2.56102 2.76465 3.01414 2.61964 4.04528 3.31776C4.47568 3.19821 4.93727 3.13826 5.39583 3.1362C5.85438 3.13826 6.31636 3.19817 6.74755 3.31776C7.77743 2.61968 8.22992 2.76469 8.22992 2.76469C8.52361 3.50788 8.33885 4.05673 8.28282 4.19259C8.62879 4.57047 8.83813 5.05183 8.83813 5.64094C8.83813 7.71338 7.57585 8.16971 6.37432 8.30329C6.56785 8.47073 6.7403 8.79912 6.7403 9.30253C6.7403 10.0245 6.73407 10.6055 6.73407 10.7832C6.73407 10.9269 6.83119 11.0951 7.10469 11.0421C9.24745 10.3279 10.7916 8.30599 10.7916 5.92278C10.7916 2.94267 8.37573 0.526917 5.39583 0.526917ZM2.02093 8.21338C2.00904 8.24019 1.96685 8.24824 1.92844 8.22982C1.88928 8.21224 1.86732 8.17569 1.87997 8.1488C1.8916 8.12119 1.93388 8.11347 1.97292 8.13198C2.01212 8.1496 2.03446 8.18648 2.02093 8.21338ZM2.28634 8.4502C2.26062 8.47406 2.21029 8.46298 2.17615 8.42529C2.14086 8.38769 2.13424 8.33736 2.16034 8.31316C2.18689 8.2893 2.23567 8.30047 2.27104 8.33807C2.30636 8.37614 2.31319 8.42609 2.28634 8.4502ZM2.46844 8.75321C2.43535 8.77618 2.38131 8.75464 2.34788 8.70667C2.31483 8.6587 2.31483 8.60116 2.3486 8.5781C2.38211 8.55504 2.43535 8.57578 2.4692 8.62342C2.50217 8.67219 2.50217 8.72973 2.4684 8.75325L2.46844 8.75321ZM2.77634 9.10415C2.74679 9.13677 2.68377 9.12801 2.63765 9.08349C2.59048 9.03999 2.57737 8.97827 2.60705 8.94565C2.63698 8.91293 2.70034 8.92212 2.74679 8.9663C2.79358 9.00972 2.80792 9.0719 2.77634 9.10415ZM3.17437 9.2226C3.1613 9.26488 3.10059 9.2841 3.03951 9.26615C2.97847 9.24764 2.93855 9.19815 2.95086 9.15545C2.96355 9.11287 3.02451 9.09289 3.08605 9.11211C3.14701 9.13049 3.18705 9.17965 3.17437 9.22264V9.2226ZM3.62727 9.27289C3.62879 9.31736 3.57698 9.35425 3.51282 9.35509C3.44833 9.35653 3.3961 9.32053 3.39538 9.27668C3.39538 9.23179 3.44605 9.19524 3.51059 9.19415C3.57475 9.19288 3.62727 9.22863 3.62727 9.27289ZM4.07222 9.25582C4.07989 9.29924 4.03533 9.34384 3.97159 9.35572C3.90899 9.36715 3.85099 9.34034 3.84302 9.2973C3.83526 9.25278 3.88067 9.20818 3.94318 9.19668C4.007 9.18559 4.06408 9.21168 4.07222 9.25582Z" fill="#161614"/>
</svg>
