<svg width="27" height="20" viewBox="0 0 27 20" fill="none" xmlns="http://www.w3.org/2000/svg">
<g clip-path="url(#clip0)">
<path d="M24.7211 19.7989H1.95095C1.06808 19.7989 0.324684 19.0786 0.324684 18.1724V1.72229C0.324582 0.83932 1.04476 0.0958252 1.95095 0.0958252H24.7211C25.6039 0.0958252 26.3475 0.816108 26.3475 1.72229V18.1724C26.3475 19.0786 25.6272 19.7989 24.7211 19.7989Z" fill="#EB5757"/>
<path opacity="0.1" d="M3.57651 19.7961L13.3119 11.9659L13.3816 11.5477L3.34418 4.32178L3.32087 19.4476L3.57651 19.7961V19.7961Z" fill="#EB5757"/>
<path d="M1.95001 19.7961C1.04382 19.7961 0.323643 19.0758 0.323643 18.1696V1.69615C0.323643 0.790068 1.04382 0.62738 1.95001 0.62738C2.85619 0.62738 3.57647 0.81328 3.57647 1.69615V19.7961H1.95001Z" fill="#F2F2F2"/>
<path d="M1.95005 0.859703C3.11177 0.859703 3.3442 1.20829 3.3442 1.69615V19.5638H1.95005C1.18335 19.5638 0.556012 18.9364 0.556012 18.1696V1.69615C0.556012 1.18498 0.788335 0.859703 1.95005 0.859703ZM1.95005 0.62738C1.04387 0.62738 0.323792 0.81328 0.323792 1.69615V18.1697C0.323792 19.0759 1.04397 19.7962 1.95016 19.7962H3.57652V1.69615C3.57652 0.790068 2.85624 0.62738 1.95005 0.62738V0.62738Z" fill="#F2F2F2"/>
<path d="M24.7201 19.7961H23.0937V1.64972C23.0937 0.743542 23.814 0.62738 24.7201 0.62738C25.6263 0.62738 26.3466 0.743542 26.3466 1.64972V18.1929C26.3466 19.0758 25.6263 19.7961 24.7201 19.7961Z" fill="#F2F2F2"/>
<path d="M24.7201 0.859703C25.7657 0.859703 26.1142 1.06881 26.1142 1.64972V18.1929C26.1142 18.9596 25.4869 19.587 24.7201 19.587H23.326V1.64972C23.326 1.0456 23.6746 0.859703 24.7201 0.859703ZM24.7201 0.62738C23.814 0.62738 23.0937 0.743542 23.0937 1.64972V19.8194H24.7201C25.6263 19.8194 26.3466 19.099 26.3466 18.1929V1.64972C26.3466 0.743542 25.6263 0.62738 24.7201 0.62738Z" fill="#F2F2F2"/>
<path d="M17.7498 19.7961L0.459797 2.37184L1.36925 2.74169L13.4049 11.4083L26.3466 1.91833V18.1929C26.3466 19.0758 25.6264 19.7961 24.7202 19.7961H17.7498Z" fill="url(#paint0_linear)"/>
<path d="M13.3136 11.9665L1.02238 3.0444C0.3021 2.51001 0.0929886 1.48767 0.627372 0.767388C1.16196 0.0471044 2.20741 -0.115481 2.95091 0.418903L13.3369 7.97022L23.7924 0.325851C24.5127 -0.208533 25.535 -0.0458452 26.0694 0.69765C26.6038 1.41793 26.4412 2.44028 25.6976 2.97466L13.3135 11.9664L13.3136 11.9665Z" fill="#F2F2F2"/>
<path d="M24.7216 0.232384C25.163 0.232384 25.5813 0.441495 25.8601 0.813192C26.3015 1.44063 26.1622 2.30028 25.5581 2.76503L13.3133 11.6872L1.16158 2.85798C0.534243 2.39323 0.371556 1.51026 0.81299 0.906244C1.06863 0.557657 1.51006 0.325436 1.97471 0.325436C2.27677 0.325436 2.57883 0.418283 2.81115 0.604183L13.174 8.13218L13.3133 8.22524L13.4527 8.13218L23.8852 0.488021C24.1408 0.325436 24.4195 0.232384 24.7216 0.232384V0.232384ZM24.7216 6.10352e-05C24.3963 6.10352e-05 24.0477 0.0930107 23.769 0.302122L13.3133 7.94628L2.92731 0.395071C2.64867 0.18596 2.30018 0.0930107 1.9516 0.0930107C1.44043 0.0930107 0.929254 0.325334 0.603981 0.76687C0.092809 1.48705 0.30192 2.5094 1.0222 3.04378L13.3134 11.9892L25.6742 2.97414C26.3945 2.43976 26.5572 1.44063 26.046 0.697132C25.7207 0.232384 25.2328 6.10352e-05 24.7216 6.10352e-05Z" fill="#F2F2F2"/>
</g>
<defs>
<linearGradient id="paint0_linear" x1="0.460832" y1="10.8568" x2="26.3549" y2="10.8568" gradientUnits="userSpaceOnUse">
<stop/>
<stop offset="1" stop-opacity="0.2"/>
</linearGradient>
<clipPath id="clip0">
<rect width="26.1854" height="19.8374" fill="white" transform="translate(0.294117)"/>
</clipPath>
</defs>
</svg>
