<svg width="60" height="59" viewBox="0 0 60 59" fill="none" xmlns="http://www.w3.org/2000/svg">
<path d="M51.4285 42.8573L8.57138 42.8573L8.57138 8.57159L51.4285 8.57159L51.4285 42.8573Z" fill="#F0F0F0"/>
<path d="M51.4285 51.4283L8.57138 51.4283L8.57138 34.2855H51.4285V51.4283Z" fill="#D80027"/>
<path d="M22.6153 55.3846H13.8461V50.7693H22.6153V55.3846Z" fill="#D80027"/>
<path d="M51.4285 25.7141L8.57138 25.7141L8.57138 8.57125L51.4285 8.57125V25.7141Z" fill="black"/>
<path d="M9.23076 9.23095L9.23076 50.7694L27.6923 29.9994L9.23076 9.23095Z" fill="#496E2D"/>
<path d="M30.0002 0C13.4337 0 0 13.4313 0 30.0002C0 43.2551 8.59594 54.5006 20.516 58.4674C22.0153 58.7452 22.5659 57.8166 22.5659 57.0241C22.5659 56.3088 22.5377 53.9456 22.5251 51.439C14.179 53.2535 12.4179 47.8992 12.4179 47.8992C11.0531 44.4316 9.08672 43.5094 9.08672 43.5094C6.36492 41.6475 9.29203 41.6859 9.29203 41.6859C12.3045 41.8973 13.8907 44.7773 13.8907 44.7773C16.5666 49.3636 20.9091 48.0377 22.6209 47.2711C22.8902 45.3323 23.6677 44.0086 24.5257 43.2595C17.8622 42.5011 10.8574 39.9286 10.8574 28.4334C10.8574 25.158 12.0293 22.4817 13.9484 20.3808C13.6369 19.6252 12.6101 16.5741 14.239 12.4416C14.239 12.4416 16.7583 11.6353 22.4913 15.5168C24.8843 14.8521 27.4507 14.5188 30.0002 14.5073C32.5498 14.5188 35.1183 14.8519 37.5157 15.5168C43.2417 11.6355 45.7575 12.4418 45.7575 12.4418C47.3904 16.5738 46.3631 19.6254 46.0516 20.3808C47.9752 22.4817 49.1391 25.158 49.1391 28.4334C49.1391 39.956 42.1209 42.4931 35.4405 43.2359C36.5166 44.1668 37.4754 45.9926 37.4754 48.7915C37.4754 52.8054 37.4407 56.036 37.4407 57.0241C37.4407 57.8227 37.9807 58.758 39.5013 58.4632C51.4148 54.4922 60 43.2509 60 30.0005C60 13.4313 46.5682 0 30.0002 0ZM11.2362 42.7359C11.1701 42.885 10.9355 42.9298 10.722 42.8273C10.5042 42.7296 10.3821 42.5264 10.4524 42.3769C10.5171 42.2234 10.7522 42.1805 10.9692 42.2834C11.1872 42.3813 11.3114 42.5864 11.2362 42.7359ZM12.7118 44.0527C12.5688 44.1853 12.289 44.1237 12.0991 43.9141C11.903 43.7051 11.8662 43.4252 12.0113 43.2907C12.1589 43.158 12.4301 43.2202 12.6267 43.4292C12.8231 43.6409 12.8611 43.9186 12.7118 44.0527ZM13.7243 45.7373C13.5403 45.8651 13.2398 45.7453 13.054 45.4786C12.8702 45.2119 12.8702 44.892 13.058 44.7638C13.2443 44.6355 13.5403 44.7509 13.7285 45.0157C13.9118 45.2869 13.9118 45.6068 13.7241 45.7376L13.7243 45.7373ZM15.4362 47.6885C15.2719 47.8699 14.9215 47.8212 14.6651 47.5737C14.4028 47.3318 14.3299 46.9887 14.4949 46.8073C14.6613 46.6254 15.0136 46.6765 15.2719 46.9221C15.532 47.1635 15.6117 47.5092 15.4362 47.6885ZM17.6491 48.3471C17.5765 48.5822 17.239 48.6891 16.8994 48.5892C16.56 48.4863 16.338 48.2112 16.4065 47.9738C16.477 47.737 16.8159 47.6259 17.1581 47.7328C17.497 47.835 17.7197 48.1083 17.6491 48.3473V48.3471ZM20.1673 48.6267C20.1757 48.874 19.8877 49.0791 19.5309 49.0837C19.1723 49.0917 18.882 48.8916 18.878 48.6478C18.878 48.3982 19.1597 48.195 19.5185 48.1889C19.8752 48.1819 20.1673 48.3806 20.1673 48.6267V48.6267ZM22.6411 48.5318C22.6837 48.7732 22.436 49.0212 22.0816 49.0873C21.7336 49.1508 21.4111 49.0017 21.3668 48.7624C21.3237 48.5149 21.5761 48.267 21.9237 48.203C22.2785 48.1413 22.5959 48.2864 22.6411 48.5318Z" fill="#161614"/>
</svg>
