<svg width="13" height="11" viewBox="0 0 13 11" fill="none" xmlns="http://www.w3.org/2000/svg">
<path d="M12.9086 1.24185C12.4336 1.45247 11.9232 1.59481 11.3875 1.65885C11.9343 1.3311 12.3542 0.81208 12.5519 0.193679C12.0321 0.502166 11.4633 0.719515 10.8702 0.836334C10.3871 0.321655 9.69888 0 8.93712 0C7.47452 0 6.28869 1.18577 6.28869 2.64827C6.28869 2.85587 6.31214 3.05797 6.35727 3.25185C4.15626 3.14137 2.20485 2.08705 0.898608 0.484777C0.670691 0.875917 0.540093 1.33089 0.540093 1.81618C0.540093 2.735 1.00768 3.54557 1.71825 4.02052C1.29769 4.00734 0.88638 3.89375 0.518663 3.68923C0.518511 3.70032 0.518511 3.71142 0.518511 3.72256C0.518511 5.0057 1.43139 6.07611 2.64288 6.3194C2.25289 6.42546 1.84382 6.44099 1.44692 6.36478C1.7839 7.41693 2.76198 8.18257 3.92083 8.204C3.01446 8.91428 1.8725 9.33769 0.631764 9.33769C0.417966 9.33769 0.207193 9.32513 0 9.30068C1.17201 10.0521 2.56407 10.4905 4.05965 10.4905C8.93097 10.4905 11.5947 6.45504 11.5947 2.95541C11.5947 2.84054 11.5922 2.72633 11.5871 2.61278C12.1055 2.23797 12.553 1.77373 12.9086 1.24185Z" fill="#55ACEE"/>
</svg>
